<svg width="167" height="20" viewBox="0 0 167 20" fill="none" xmlns="http://www.w3.org/2000/svg">
<g clip-path="url(#clip0)">
<path d="M14.984 5.34395C13.568 3.08795 10.928 1.81595 8.31203 1.79195C5.40803 1.76795 2.26403 2.99195 0.728035 5.55995C0.560035 5.87195 0.968035 6.20795 1.23203 5.94395C2.84003 4.26395 4.83203 3.03995 7.18403 2.79995C9.39204 2.58395 11.792 3.39995 13.304 5.07995C14.384 6.27995 14.744 7.76795 14.672 9.27995C13.496 9.18395 12.32 9.25595 11.144 9.39995C10.52 9.47195 9.87203 9.56795 9.24803 9.68795C8.91203 9.75995 8.57604 9.83195 8.24004 9.90395C7.92803 9.97595 7.56804 10.144 7.23204 10.216C7.13603 10.192 7.01603 10.216 6.94404 10.288C6.92003 10.312 6.92003 10.312 6.89604 10.312C6.72804 10.48 6.80003 10.768 6.96803 10.864C7.37603 11.128 8.07203 10.912 8.50403 10.84C9.29603 10.72 10.088 10.6 10.904 10.504C12.128 10.384 13.328 10.336 14.552 10.384C14.456 11.056 14.288 11.728 14.072 12.376C13.64 13.696 13.16 14.92 12.032 15.784C10.952 16.6 9.68003 17.176 8.38404 17.512C7.01603 17.848 5.60003 17.824 4.25603 17.392C2.88803 16.96 1.95203 16.096 0.920035 15.16C0.656035 14.896 0.0560346 15.136 0.224035 15.568C1.30403 18.16 4.76003 19.216 7.32803 19C10.328 18.712 13.568 17.128 14.768 14.248C15.92 11.488 16.688 8.03195 14.984 5.34395Z" fill="#FFCF00"/>
<path d="M28.9955 17.584C28.8755 17.008 28.7555 16.432 28.6115 15.856C28.3955 14.776 28.1315 13.72 27.8675 12.64C27.2915 10.408 26.6435 8.22395 25.9475 6.03995C25.8035 5.63195 25.2275 5.53595 25.0115 5.91995C23.8355 7.81595 22.6835 9.71195 21.5795 11.632C20.4755 13.576 19.3235 15.496 18.4115 17.512C18.1955 18.04 18.8675 18.448 19.1795 17.968C20.4515 16.144 21.4835 14.152 22.5875 12.232C23.4995 10.672 24.3875 9.11195 25.2755 7.55195C25.7315 9.35195 26.1635 11.176 26.5715 13C26.8115 14.08 27.0515 15.136 27.2915 16.216C27.4115 16.792 27.5315 17.392 27.6515 17.968C27.7715 18.496 27.7955 18.88 28.2515 19.216C28.4915 19.408 28.8515 19.264 28.9715 19.048C29.2595 18.544 29.0915 18.112 28.9955 17.584Z" fill="#FFCF00"/>
<path d="M42.144 17.584C42.024 17.008 41.904 16.432 41.76 15.856C41.544 14.776 41.28 13.72 41.016 12.64C40.44 10.408 39.792 8.22395 39.096 6.03995C38.952 5.63195 38.376 5.53595 38.16 5.91995C36.984 7.81595 35.832 9.71195 34.728 11.632C33.624 13.576 32.472 15.496 31.56 17.512C31.344 18.04 32.016 18.448 32.328 17.968C33.6 16.144 34.632 14.152 35.736 12.232C36.648 10.672 37.536 9.11195 38.424 7.55195C38.88 9.35195 39.312 11.176 39.72 13C39.96 14.08 40.2 15.136 40.44 16.216C40.56 16.792 40.68 17.392 40.8 17.968C40.92 18.496 40.944 18.88 41.4 19.216C41.64 19.408 42 19.264 42.12 19.048C42.408 18.544 42.24 18.112 42.144 17.584Z" fill="#FFCF00"/>
<path d="M59.1084 17.488C58.6284 15.592 58.6284 13.576 58.4604 11.632C58.3164 9.63995 58.0524 7.64795 57.9084 5.65595C57.8604 4.88795 56.7804 4.67195 56.5404 5.46395C56.2524 6.47195 55.9404 7.47995 55.6284 8.48795C55.0284 7.64795 54.2844 6.97595 53.3004 6.54395C52.0284 5.99195 50.4924 5.84795 49.1244 6.06395C46.4844 6.47195 44.8284 9.18395 44.6844 11.68C44.5404 14.128 46.0044 16.504 48.2604 17.44C50.5884 18.4 53.2764 17.536 54.6444 15.472C55.5564 14.104 56.1324 12.4 56.6364 10.864C56.6844 10.696 56.7324 10.528 56.7804 10.36C56.8044 10.864 56.8284 11.392 56.8764 11.896C56.9964 13.888 56.9964 15.976 57.5004 17.92C57.7644 18.952 59.3484 18.52 59.1084 17.488ZM54.3324 12.256C53.5884 14.104 52.6284 16.048 50.3724 16.096C48.5244 16.144 46.9644 14.728 46.5564 12.976C46.1484 11.224 46.9404 8.96795 48.5724 8.05595C49.6044 7.50395 51.1404 7.62395 52.2204 7.91195C53.3244 8.22395 54.2124 9.06395 55.0524 9.80795C55.1004 9.83195 55.1484 9.85595 55.1964 9.87995C54.9324 10.696 54.6444 11.488 54.3324 12.256Z" fill="#FFCF00"/>
<path d="M75.6418 3.13595C76.9858 3.06395 78.3058 3.35195 79.5058 3.92795C80.7298 4.52795 81.6898 5.41595 82.7698 6.20795C83.1298 6.44795 83.5858 5.94395 83.3698 5.58395C82.0018 3.30395 78.8338 1.91195 76.2178 1.88795C73.6018 1.86395 70.9858 3.15995 69.6418 5.46395C68.8738 6.75995 68.3698 8.29595 68.0578 9.75995C67.7458 11.224 67.6498 12.76 68.0578 14.2C68.3938 15.448 69.1138 16.624 70.1698 17.392C71.3458 18.28 72.8578 18.472 74.3218 18.544C77.4898 18.736 81.3298 17.968 83.0338 14.992C83.4418 14.272 82.4338 13.744 81.9538 14.368C80.3938 16.432 77.9218 17.2 75.4018 17.248C74.1058 17.272 72.6178 17.296 71.4178 16.72C70.4098 16.24 69.6898 15.304 69.2818 14.248C68.3938 11.848 69.1858 8.84795 70.2898 6.61595C71.2978 4.55195 73.3378 3.25595 75.6418 3.13595Z" fill="#FFCF00"/>
<path d="M94.8167 7.33595C93.2327 8.84795 91.7447 10.504 90.3527 12.208C89.3447 13.432 88.3607 14.68 87.2567 15.832C87.2087 14.392 87.4727 12.904 87.4967 11.464C87.5687 9.56795 87.3287 7.69595 86.9207 5.84795C86.8247 5.39195 86.0567 5.48795 86.1047 5.96795C86.2727 7.91195 86.2727 9.90395 86.1287 11.848C86.0087 13.792 85.6007 15.688 85.9847 17.608C86.1047 18.184 86.8487 18.28 87.2087 17.92C88.7927 16.528 90.0887 14.872 91.4087 13.264C92.4167 12.064 93.4727 10.912 94.5527 9.78395C94.4567 12.856 94.3127 15.928 94.3127 19C94.3127 19.984 95.8007 19.984 95.8487 19C96.0407 15.304 95.9927 11.584 96.1127 7.86395C96.1367 7.19195 95.2727 6.87995 94.8167 7.33595Z" fill="#FFCF00"/>
<path d="M109.344 11.92C109.224 10.192 109.008 8.46395 108.744 6.75995C108.696 6.47195 108.384 6.27995 108.12 6.27995C106.608 6.27995 105.096 6.27995 103.56 6.25595C102.84 6.25595 102.144 6.25595 101.424 6.25595C100.704 6.25595 99.9838 6.27995 99.3118 6.01595C98.9278 5.84795 98.5438 6.23195 98.5438 6.59195C98.5438 8.70395 98.5438 10.84 98.5438 12.952C98.5438 13.984 98.5438 15.016 98.5438 16.072C98.5678 16.696 98.3518 17.896 99.0478 18.232C99.3598 18.376 99.7438 18.208 99.7198 17.848C99.7198 17.728 99.6958 17.632 99.6238 17.536C99.5758 17.512 99.6718 16.696 99.6718 16.576C99.6958 16.096 99.6958 15.64 99.7198 15.16C99.7198 14.2 99.7198 13.264 99.7198 12.304C99.7438 10.672 99.7438 9.03995 99.7438 7.40795C100.872 7.62395 102.072 7.52795 103.2 7.52795C104.64 7.55195 106.104 7.55195 107.568 7.55195C107.784 9.08795 107.928 10.624 108.024 12.16C108.096 13.84 108 15.52 108.048 17.176C108.096 18.04 109.272 17.992 109.368 17.176C109.56 15.448 109.44 13.648 109.344 11.92Z" fill="#FFCF00"/>
<path d="M126.304 17.488C125.824 15.592 125.824 13.576 125.656 11.632C125.512 9.63995 125.248 7.64795 125.104 5.65595C125.056 4.88795 123.976 4.67195 123.736 5.46395C123.448 6.47195 123.136 7.47995 122.824 8.48795C122.224 7.64795 121.48 6.97595 120.496 6.54395C119.224 5.99195 117.688 5.84795 116.32 6.06395C113.68 6.47195 112.024 9.18395 111.88 11.68C111.736 14.128 113.2 16.504 115.456 17.44C117.784 18.4 120.472 17.536 121.84 15.472C122.752 14.104 123.328 12.4 123.832 10.864C123.88 10.696 123.928 10.528 123.976 10.36C124 10.864 124.024 11.392 124.072 11.896C124.192 13.888 124.192 15.976 124.696 17.92C124.96 18.952 126.544 18.52 126.304 17.488ZM121.528 12.256C120.784 14.104 119.824 16.048 117.568 16.096C115.72 16.144 114.16 14.728 113.752 12.976C113.344 11.224 114.136 8.96795 115.768 8.05595C116.8 7.50395 118.336 7.62395 119.416 7.91195C120.52 8.22395 121.408 9.06395 122.248 9.80795C122.296 9.83195 122.344 9.85595 122.392 9.87995C122.128 10.696 121.84 11.488 121.528 12.256Z" fill="#FFCF00"/>
<path d="M137.707 7.33595C136.123 8.84795 134.635 10.504 133.243 12.208C132.235 13.432 131.251 14.68 130.147 15.832C130.099 14.392 130.363 12.904 130.387 11.464C130.459 9.56795 130.219 7.69595 129.811 5.84795C129.715 5.39195 128.947 5.48795 128.995 5.96795C129.163 7.91195 129.163 9.90395 129.019 11.848C128.899 13.792 128.491 15.688 128.875 17.608C128.995 18.184 129.739 18.28 130.099 17.92C131.683 16.528 132.979 14.872 134.299 13.264C135.307 12.064 136.363 10.912 137.443 9.78395C137.347 12.856 137.203 15.928 137.203 19C137.203 19.984 138.691 19.984 138.739 19C138.931 15.304 138.883 11.584 139.003 7.86395C139.027 7.19195 138.163 6.87995 137.707 7.33595ZM134.923 3.85595C135.787 3.83195 136.531 3.47195 137.179 2.91995C137.731 2.46395 138.499 1.69595 138.595 0.951953C138.667 0.495953 138.283 0.135954 137.827 0.351954C137.323 0.615953 137.035 1.16795 136.675 1.57595C136.243 2.05595 135.715 2.48795 135.067 2.58395C134.323 2.67995 133.555 2.41595 132.907 2.10395C132.331 1.81595 131.899 1.38395 131.347 1.02395C131.131 0.879953 130.723 1.07195 130.771 1.38395C130.987 2.99195 133.507 3.90395 134.923 3.85595Z" fill="#FFCF00"/>
<path d="M152.042 17.584C151.922 17.008 151.802 16.432 151.658 15.856C151.442 14.776 151.178 13.72 150.914 12.64C150.338 10.408 149.69 8.22395 148.994 6.03995C148.85 5.63195 148.274 5.53595 148.058 5.91995C146.882 7.81595 145.73 9.71195 144.626 11.632C143.522 13.576 142.37 15.496 141.458 17.512C141.242 18.04 141.914 18.448 142.226 17.968C143.498 16.144 144.53 14.152 145.634 12.232C146.546 10.672 147.434 9.11195 148.322 7.55195C148.778 9.35195 149.21 11.176 149.618 13C149.858 14.08 150.098 15.136 150.338 16.216C150.458 16.792 150.578 17.392 150.698 17.968C150.818 18.496 150.842 18.88 151.298 19.216C151.538 19.408 151.898 19.264 152.018 19.048C152.306 18.544 152.138 18.112 152.042 17.584Z" fill="#FFCF00"/>
<path d="M165.431 8.75195C164.591 7.52795 163.511 6.35195 162.119 5.75195C161.471 5.48795 160.751 5.34395 160.055 5.41595C159.695 5.46395 159.383 5.53595 159.119 5.65595C159.023 5.70395 158.903 5.72795 158.807 5.77595C158.159 6.06395 157.559 6.51995 157.055 6.97595C156.023 7.91195 155.303 9.25595 154.871 10.552C154.007 13.168 155.039 16 157.463 17.368C159.743 18.664 162.671 18.136 164.567 16.36C166.703 14.392 167.039 11.152 165.431 8.75195ZM164.999 11.992C164.927 12.976 164.495 13.984 163.847 14.728C162.623 16.096 160.631 16.864 158.855 16.192C157.175 15.592 155.951 13.816 156.119 12.016C156.215 10.84 156.767 9.56795 157.463 8.60795C157.799 8.15195 158.231 7.76795 158.663 7.40795C158.975 7.16795 159.359 6.85595 159.767 6.63995C160.415 6.59195 161.063 6.63995 161.663 6.92795C162.623 7.35995 163.367 8.17595 163.967 9.01595C164.615 9.92795 165.047 10.864 164.999 11.992Z" fill="#FFCF00"/>
</g>
<defs>
<clipPath id="clip0">
<rect width="166.244" height="19.4504" fill="white" transform="translate(0.194824 0.287598)"/>
</clipPath>
</defs>
</svg>
